<svg id="Layer_1" data-name="Layer 1" xmlns="http://www.w3.org/2000/svg" viewBox="0 0 354.43 240.84"><defs><style>.cls-1{fill:#f8a68b;}.cls-2{fill:#f3734d;}.cls-3{fill:#d34627;}.cls-4{fill:#84120d;}.cls-5{fill:#231f20;}</style></defs><rect class="cls-1" y="18.77" width="300" height="26.43"/><rect class="cls-2" y="83.55" width="111" height="26.43"/><rect class="cls-3" y="148.32" width="76.42" height="27.31"/><rect class="cls-4" x="1.28" y="213.53" width="2.57" height="27.31"/><path class="cls-5" d="M101.18,119.08a2.6,2.6,0,0,1,1.81-2.43l0-.05a2.24,2.24,0,0,1-1.44-2,2.55,2.55,0,0,1,2.82-2.42,2.27,2.27,0,0,1,1.14,4.37v0a2.52,2.52,0,0,1,1.84,2.35,2.81,2.81,0,0,1-3.1,2.65C102.33,121.55,101.18,120.41,101.18,119.08Zm4.9,0c0-1.11-.77-1.64-2-2a2,2,0,0,0-1.64,1.88,1.68,1.68,0,0,0,1.82,1.73A1.64,1.64,0,0,0,106.08,119Zm-3.39-4.55c0,.91.69,1.4,1.74,1.68a1.81,1.81,0,0,0,1.39-1.66,1.42,1.42,0,0,0-1.55-1.48A1.45,1.45,0,0,0,102.69,114.48Z" transform="translate(-100.66 -111.45)"/><path class="cls-5" d="M109.19,120.53a5.23,5.23,0,0,0,1,0,3.38,3.38,0,0,0,1.91-.88,4,4,0,0,0,1.2-2.42h0a2.68,2.68,0,0,1-2.14,1,2.64,2.64,0,0,1-2.69-2.79,3.11,3.11,0,0,1,3.11-3.23c1.86,0,3,1.51,3,3.83a5.75,5.75,0,0,1-1.57,4.28,4.58,4.58,0,0,1-2.65,1.21,5.4,5.4,0,0,1-1.13.08Zm.45-5.24a1.75,1.75,0,0,0,1.75,1.93,2,2,0,0,0,1.79-1,.81.81,0,0,0,.11-.45c0-1.55-.57-2.75-1.86-2.75C110.38,113.07,109.64,114,109.64,115.29Z" transform="translate(-100.66 -111.45)"/><path class="cls-5" d="M115.54,119.08a2.6,2.6,0,0,1,1.81-2.43v-.05a2.25,2.25,0,0,1-1.45-2,2.55,2.55,0,0,1,2.82-2.42,2.35,2.35,0,0,1,2.65,2.24,2.32,2.32,0,0,1-1.5,2.13v0a2.52,2.52,0,0,1,1.83,2.35,2.81,2.81,0,0,1-3.09,2.65C116.69,121.55,115.54,120.41,115.54,119.08Zm4.91,0c0-1.11-.77-1.64-2-2a2,2,0,0,0-1.64,1.88,1.68,1.68,0,0,0,1.82,1.73A1.65,1.65,0,0,0,120.45,119Zm-3.39-4.55c0,.91.68,1.4,1.73,1.68a1.8,1.8,0,0,0,1.39-1.66,1.41,1.41,0,0,0-1.54-1.48A1.45,1.45,0,0,0,117.06,114.48Z" transform="translate(-100.66 -111.45)"/><path class="cls-5" d="M123.55,120.53a5.29,5.29,0,0,0,1,0,3.38,3.38,0,0,0,1.9-.88,4,4,0,0,0,1.21-2.42h0a2.68,2.68,0,0,1-2.14,1,2.64,2.64,0,0,1-2.69-2.79,3.12,3.12,0,0,1,3.11-3.23c1.86,0,3,1.51,3,3.83a5.75,5.75,0,0,1-1.57,4.28,4.55,4.55,0,0,1-2.64,1.21,5.45,5.45,0,0,1-1.14.08Zm.45-5.24a1.75,1.75,0,0,0,1.75,1.93,2,2,0,0,0,1.79-1,.8.8,0,0,0,.12-.45c0-1.55-.58-2.75-1.87-2.75C124.74,113.07,124,114,124,115.29Z" transform="translate(-100.66 -111.45)"/><path class="cls-5" d="M133.38,116.73c0-.8,0-1.48-.06-2.11h1.08l0,1.33h.06a2,2,0,0,1,1.88-1.49,1.87,1.87,0,0,1,.35,0v1.17a1.79,1.79,0,0,0-.42,0,1.74,1.74,0,0,0-1.66,1.59,3.27,3.27,0,0,0-.05.57v3.62h-1.22Z" transform="translate(-100.66 -111.45)"/><path class="cls-5" d="M138.5,118.23a2.17,2.17,0,0,0,2.33,2.35,4.45,4.45,0,0,0,1.88-.35l.21.88a5.44,5.44,0,0,1-2.26.43,3.15,3.15,0,0,1-3.33-3.42c0-2.05,1.2-3.66,3.18-3.66,2.21,0,2.8,2,2.8,3.19a5.79,5.79,0,0,1,0,.58Zm3.62-.88a1.77,1.77,0,0,0-1.71-2,2,2,0,0,0-1.89,2Z" transform="translate(-100.66 -111.45)"/><path class="cls-5" d="M144.83,116.83c0-.87,0-1.57-.06-2.21h1.11l.06,1.16h0a2.65,2.65,0,0,1,2.4-1.32c1.64,0,2.88,1.39,2.88,3.45,0,2.43-1.49,3.64-3.09,3.64a2.35,2.35,0,0,1-2.08-1.07h0v3.69h-1.22Zm1.22,1.81a2.54,2.54,0,0,0,.06.5,1.89,1.89,0,0,0,1.84,1.44c1.31,0,2.06-1.06,2.06-2.62,0-1.36-.71-2.52-2-2.52a2,2,0,0,0-1.87,1.53,2,2,0,0,0-.08.5Z" transform="translate(-100.66 -111.45)"/><path class="cls-5" d="M158.93,118a3.31,3.31,0,0,1-3.37,3.6,3.22,3.22,0,0,1-3.25-3.49,3.31,3.31,0,0,1,3.36-3.6A3.21,3.21,0,0,1,158.93,118Zm-5.38.07c0,1.48.86,2.6,2.06,2.6s2.06-1.1,2.06-2.63c0-1.15-.57-2.6-2-2.6S153.55,116.73,153.55,118Z" transform="translate(-100.66 -111.45)"/><path class="cls-5" d="M160.48,116.73c0-.8,0-1.48,0-2.11h1.07l.05,1.33h0a2,2,0,0,1,1.88-1.49,1.78,1.78,0,0,1,.35,0v1.17a1.67,1.67,0,0,0-2.07,1.54,3.22,3.22,0,0,0-.06.57v3.62h-1.22Z" transform="translate(-100.66 -111.45)"/><path class="cls-5" d="M166.88,112.67v2h1.77v.93h-1.77v3.66c0,.84.24,1.32.93,1.32a2.73,2.73,0,0,0,.71-.09l.06.93a3.24,3.24,0,0,1-1.1.17,1.74,1.74,0,0,1-1.33-.52,2.53,2.53,0,0,1-.47-1.77v-3.7h-1.05v-.93h1.05V113Z" transform="translate(-100.66 -111.45)"/><path class="cls-5" d="M170.63,118.23a2.17,2.17,0,0,0,2.33,2.35,4.36,4.36,0,0,0,1.87-.35l.21.88a5.34,5.34,0,0,1-2.25.43,3.15,3.15,0,0,1-3.33-3.42c0-2.05,1.2-3.66,3.18-3.66,2.21,0,2.8,2,2.8,3.19a5.79,5.79,0,0,1,0,.58Zm3.62-.88a1.77,1.77,0,0,0-1.71-2,2,2,0,0,0-1.89,2Z" transform="translate(-100.66 -111.45)"/><path class="cls-5" d="M182.82,111.45v8.19c0,.61,0,1.29.05,1.76h-1.11l0-1.18h0a2.51,2.51,0,0,1-2.31,1.33c-1.64,0-2.9-1.39-2.9-3.45,0-2.25,1.39-3.64,3-3.64a2.24,2.24,0,0,1,2,1h0v-4Zm-1.24,5.93a2.24,2.24,0,0,0-.05-.52,1.82,1.82,0,0,0-1.78-1.43c-1.28,0-2,1.12-2,2.62s.67,2.5,2,2.5a1.85,1.85,0,0,0,1.81-1.47,2.17,2.17,0,0,0,.05-.53Z" transform="translate(-100.66 -111.45)"/><path class="cls-5" d="M193.68,111.45v8.19c0,.61,0,1.29,0,1.76h-1.1l-.06-1.18h0a2.5,2.5,0,0,1-2.31,1.33c-1.64,0-2.9-1.39-2.9-3.45,0-2.25,1.39-3.64,3-3.64a2.27,2.27,0,0,1,2,1h0v-4Zm-1.23,5.93a2.24,2.24,0,0,0-.06-.52,1.8,1.8,0,0,0-1.78-1.43c-1.27,0-2,1.12-2,2.62s.67,2.5,2,2.5a1.84,1.84,0,0,0,1.81-1.47,2.15,2.15,0,0,0,.06-.53Z" transform="translate(-100.66 -111.45)"/><path class="cls-5" d="M201.85,118a3.31,3.31,0,0,1-3.37,3.6,3.22,3.22,0,0,1-3.25-3.49,3.31,3.31,0,0,1,3.36-3.6A3.21,3.21,0,0,1,201.85,118Zm-5.37.07c0,1.48.85,2.6,2.06,2.6s2.05-1.1,2.05-2.63c0-1.15-.57-2.6-2-2.6S196.48,116.73,196.48,118Z" transform="translate(-100.66 -111.45)"/><path class="cls-5" d="M203.41,116.45c0-.7,0-1.27-.06-1.83h1.08l0,1.09h.05a2.32,2.32,0,0,1,2.13-1.25,2,2,0,0,1,1.91,1.36h0a2.77,2.77,0,0,1,.76-.88,2.3,2.3,0,0,1,1.5-.48c.89,0,2.22.59,2.22,2.94v4h-1.2v-3.84c0-1.31-.48-2.09-1.47-2.09a1.6,1.6,0,0,0-1.46,1.12,2.23,2.23,0,0,0-.1.62v4.19h-1.2v-4.07c0-1.08-.48-1.86-1.41-1.86a1.84,1.84,0,0,0-1.63,1.83v4.1h-1.2Z" transform="translate(-100.66 -111.45)"/><path class="cls-5" d="M215.77,118.23a2.17,2.17,0,0,0,2.32,2.35,4.38,4.38,0,0,0,1.88-.35l.21.88a5.38,5.38,0,0,1-2.25.43,3.16,3.16,0,0,1-3.34-3.42c0-2.05,1.21-3.66,3.18-3.66,2.21,0,2.8,2,2.8,3.19a5.79,5.79,0,0,1,0,.58Zm3.61-.88a1.75,1.75,0,0,0-1.71-2,2.05,2.05,0,0,0-1.89,2Z" transform="translate(-100.66 -111.45)"/><path class="cls-5" d="M221.93,120.13a3.2,3.2,0,0,0,1.62.49c.9,0,1.32-.44,1.32-1s-.35-.91-1.26-1.25c-1.22-.43-1.8-1.11-1.8-1.92a2.1,2.1,0,0,1,2.34-2,3.44,3.44,0,0,1,1.67.42l-.31.9a2.58,2.58,0,0,0-1.38-.39c-.73,0-1.14.42-1.14.92s.41.81,1.29,1.15c1.18.45,1.78,1,1.78,2,0,1.19-.93,2-2.54,2a3.86,3.86,0,0,1-1.9-.47Z" transform="translate(-100.66 -111.45)"/><path class="cls-5" d="M229.12,112.67v2h1.77v.93h-1.77v3.66c0,.84.24,1.32.93,1.32a2.73,2.73,0,0,0,.71-.09l.06.93a3.22,3.22,0,0,1-1.09.17,1.71,1.71,0,0,1-1.33-.52,2.53,2.53,0,0,1-.48-1.77v-3.7h-1v-.93h1V113Z" transform="translate(-100.66 -111.45)"/><path class="cls-5" d="M233.65,112.71a.77.77,0,0,1-1.53,0,.75.75,0,0,1,.77-.77A.74.74,0,0,1,233.65,112.71Zm-1.38,8.69v-6.78h1.24v6.78Z" transform="translate(-100.66 -111.45)"/><path class="cls-5" d="M240.38,121.14a4.44,4.44,0,0,1-1.94.4,3.22,3.22,0,0,1-3.38-3.46,3.44,3.44,0,0,1,3.64-3.6,4.1,4.1,0,0,1,1.71.35l-.28,1a2.84,2.84,0,0,0-1.43-.32,2.34,2.34,0,0,0-2.39,2.56,2.31,2.31,0,0,0,2.35,2.53,3.56,3.56,0,0,0,1.51-.33Z" transform="translate(-100.66 -111.45)"/><path class="cls-5" d="M245.27,114.62l1.33,3.81a17.81,17.81,0,0,1,.54,1.73h0c.16-.56.35-1.12.58-1.73l1.32-3.81h1.28l-2.66,6.78h-1.17L244,114.62Z" transform="translate(-100.66 -111.45)"/><path class="cls-5" d="M252.9,112.71a.77.77,0,0,1-1.53,0,.75.75,0,0,1,.77-.77A.74.74,0,0,1,252.9,112.71Zm-1.38,8.69v-6.78h1.24v6.78Z" transform="translate(-100.66 -111.45)"/><path class="cls-5" d="M260.93,118a3.31,3.31,0,0,1-3.37,3.6,3.22,3.22,0,0,1-3.25-3.49,3.31,3.31,0,0,1,3.36-3.6A3.21,3.21,0,0,1,260.93,118Zm-5.37.07c0,1.48.85,2.6,2.05,2.6s2.06-1.1,2.06-2.63c0-1.15-.57-2.6-2-2.6S255.56,116.73,255.56,118Z" transform="translate(-100.66 -111.45)"/><path class="cls-5" d="M262.48,111.45h1.24v10h-1.24Z" transform="translate(-100.66 -111.45)"/><path class="cls-5" d="M266.47,118.23a2.17,2.17,0,0,0,2.33,2.35,4.45,4.45,0,0,0,1.88-.35l.21.88a5.44,5.44,0,0,1-2.26.43,3.15,3.15,0,0,1-3.33-3.42c0-2.05,1.2-3.66,3.18-3.66,2.21,0,2.8,2,2.8,3.19a5.79,5.79,0,0,1,0,.58Zm3.62-.88a1.76,1.76,0,0,0-1.71-2,2,2,0,0,0-1.89,2Z" transform="translate(-100.66 -111.45)"/><path class="cls-5" d="M272.8,116.45c0-.7,0-1.27-.05-1.83h1.09l.07,1.12h0a2.48,2.48,0,0,1,2.24-1.28c.94,0,2.39.56,2.39,2.89v4.05h-1.23v-3.91c0-1.1-.41-2-1.57-2a1.76,1.76,0,0,0-1.65,1.26,1.73,1.73,0,0,0-.08.58v4.08H272.8Z" transform="translate(-100.66 -111.45)"/><path class="cls-5" d="M285.41,121.14a4.53,4.53,0,0,1-2,.4,3.22,3.22,0,0,1-3.38-3.46,3.44,3.44,0,0,1,3.64-3.6,4.07,4.07,0,0,1,1.71.35l-.28,1a2.81,2.81,0,0,0-1.43-.32,2.55,2.55,0,0,0,0,5.09,3.65,3.65,0,0,0,1.52-.33Z" transform="translate(-100.66 -111.45)"/><path class="cls-5" d="M287.45,118.23a2.17,2.17,0,0,0,2.32,2.35,4.38,4.38,0,0,0,1.88-.35l.21.88a5.4,5.4,0,0,1-2.26.43,3.15,3.15,0,0,1-3.33-3.42c0-2.05,1.21-3.66,3.18-3.66,2.21,0,2.8,2,2.8,3.19a5.79,5.79,0,0,1,0,.58Zm3.61-.88a1.75,1.75,0,0,0-1.71-2,2.05,2.05,0,0,0-1.89,2Z" transform="translate(-100.66 -111.45)"/><path class="cls-5" d="M301.58,121.14a4.53,4.53,0,0,1-1.95.4,3.22,3.22,0,0,1-3.38-3.46,3.44,3.44,0,0,1,3.64-3.6,4.07,4.07,0,0,1,1.71.35l-.28,1a2.81,2.81,0,0,0-1.43-.32,2.55,2.55,0,0,0,0,5.09,3.65,3.65,0,0,0,1.52-.33Z" transform="translate(-100.66 -111.45)"/><path class="cls-5" d="M306.77,121.4l-.1-.86h0a2.54,2.54,0,0,1-2.08,1,1.93,1.93,0,0,1-2.07-2c0-1.64,1.46-2.53,4.08-2.52v-.14a1.4,1.4,0,0,0-1.54-1.57,3.39,3.39,0,0,0-1.77.51l-.28-.82a4.24,4.24,0,0,1,2.23-.6c2.07,0,2.58,1.42,2.58,2.77v2.54a9.08,9.08,0,0,0,.11,1.63Zm-.18-3.46c-1.35,0-2.88.21-2.88,1.52a1.1,1.1,0,0,0,1.17,1.18,1.69,1.69,0,0,0,1.64-1.14,1.28,1.28,0,0,0,.07-.39Z" transform="translate(-100.66 -111.45)"/><path class="cls-5" d="M309.59,120.13a3.24,3.24,0,0,0,1.63.49c.9,0,1.32-.44,1.32-1s-.35-.91-1.27-1.25c-1.21-.43-1.79-1.11-1.79-1.92a2.09,2.09,0,0,1,2.34-2,3.44,3.44,0,0,1,1.67.42l-.31.9a2.65,2.65,0,0,0-1.39-.39c-.73,0-1.13.42-1.13.92s.4.81,1.29,1.15c1.17.45,1.78,1,1.78,2,0,1.19-.93,2-2.54,2a3.84,3.84,0,0,1-1.9-.47Z" transform="translate(-100.66 -111.45)"/><path class="cls-5" d="M316,118.23a2.17,2.17,0,0,0,2.33,2.35,4.36,4.36,0,0,0,1.87-.35l.21.88a5.34,5.34,0,0,1-2.25.43,3.15,3.15,0,0,1-3.33-3.42c0-2.05,1.2-3.66,3.18-3.66,2.21,0,2.8,2,2.8,3.19a3.54,3.54,0,0,1-.05.58Zm3.62-.88a1.77,1.77,0,0,0-1.71-2,2,2,0,0,0-1.89,2Z" transform="translate(-100.66 -111.45)"/><path class="cls-5" d="M322.15,120.13a3.24,3.24,0,0,0,1.63.49c.89,0,1.31-.44,1.31-1s-.35-.91-1.26-1.25c-1.22-.43-1.79-1.11-1.79-1.92a2.09,2.09,0,0,1,2.34-2,3.44,3.44,0,0,1,1.67.42l-.31.9a2.65,2.65,0,0,0-1.39-.39c-.73,0-1.13.42-1.13.92s.4.81,1.29,1.15c1.17.45,1.77,1,1.77,2,0,1.19-.92,2-2.53,2a3.91,3.91,0,0,1-1.91-.47Z" transform="translate(-100.66 -111.45)"/><path class="cls-5" d="M101.59,187.22a4.15,4.15,0,0,0,2,.57c1.59,0,2.08-1,2.06-1.76,0-1.28-1.16-1.82-2.35-1.82h-.69v-.93h.69c.9,0,2-.46,2-1.54,0-.73-.46-1.37-1.6-1.37a3.33,3.33,0,0,0-1.82.6l-.32-.9a4.34,4.34,0,0,1,2.38-.7c1.79,0,2.61,1.07,2.61,2.18a2.27,2.27,0,0,1-1.68,2.14v0a2.36,2.36,0,0,1,2,2.34c0,1.45-1.14,2.73-3.32,2.73a4.56,4.56,0,0,1-2.37-.62Z" transform="translate(-100.66 -111.45)"/><path class="cls-5" d="M108.77,187.22a4.15,4.15,0,0,0,2,.57c1.59,0,2.08-1,2.06-1.76,0-1.28-1.16-1.82-2.35-1.82h-.69v-.93h.69c.9,0,2-.46,2-1.54,0-.73-.46-1.37-1.6-1.37a3.39,3.39,0,0,0-1.82.6l-.32-.9a4.34,4.34,0,0,1,2.38-.7c1.8,0,2.61,1.07,2.61,2.18a2.27,2.27,0,0,1-1.68,2.14v0a2.36,2.36,0,0,1,2,2.34c0,1.45-1.14,2.73-3.32,2.73a4.59,4.59,0,0,1-2.37-.62Z" transform="translate(-100.66 -111.45)"/><path class="cls-5" d="M115.66,188.63v-.75l1-.94c2.33-2.21,3.38-3.39,3.39-4.76a1.62,1.62,0,0,0-1.81-1.78,3.11,3.11,0,0,0-1.93.77l-.39-.87a4,4,0,0,1,2.58-.93,2.56,2.56,0,0,1,2.78,2.65c0,1.68-1.21,3-3.13,4.89l-.73.67v0h4.09v1Z" transform="translate(-100.66 -111.45)"/><path class="cls-5" d="M128,180.4a4.37,4.37,0,0,0-.92,0,3.71,3.71,0,0,0-3.17,3.24h0a2.77,2.77,0,0,1,4.94,1.89,3,3,0,0,1-3,3.21c-1.94,0-3.22-1.52-3.22-3.88a5.76,5.76,0,0,1,1.54-4.11,5,5,0,0,1,2.92-1.34,5.37,5.37,0,0,1,.89-.07Zm-.35,5.25a1.85,1.85,0,0,0-1.87-2.09,2,2,0,0,0-1.77,1.12,1.12,1.12,0,0,0-.14.55c0,1.5.72,2.6,2,2.6C127,187.83,127.68,187,127.68,185.65Z" transform="translate(-100.66 -111.45)"/><path class="cls-5" d="M139.51,185.19a3.31,3.31,0,0,1-3.37,3.6,3.22,3.22,0,0,1-3.25-3.49,3.31,3.31,0,0,1,3.36-3.6A3.2,3.2,0,0,1,139.51,185.19Zm-5.38.07c0,1.48.86,2.6,2.06,2.6s2.06-1.1,2.06-2.63c0-1.15-.57-2.61-2-2.61S134.13,184,134.13,185.26Z" transform="translate(-100.66 -111.45)"/><path class="cls-5" d="M141.19,188.63v-5.84h-.95v-.94h.95v-.32a3.19,3.19,0,0,1,.79-2.37,2.38,2.38,0,0,1,1.65-.63,2.83,2.83,0,0,1,1.05.2l-.17,1a1.88,1.88,0,0,0-.78-.15c-1,0-1.32.92-1.32,2v.36h1.64v.94h-1.64v5.84Z" transform="translate(-100.66 -111.45)"/><path class="cls-5" d="M149.6,179.91v1.94h1.77v.94H149.6v3.66c0,.84.24,1.31.93,1.31a2.82,2.82,0,0,0,.71-.08l.06.93a3.26,3.26,0,0,1-1.09.16,1.68,1.68,0,0,1-1.33-.52,2.49,2.49,0,0,1-.48-1.76v-3.7h-1.05v-.94h1.05v-1.62Z" transform="translate(-100.66 -111.45)"/><path class="cls-5" d="M152.75,178.69H154v4.23h0a2.23,2.23,0,0,1,.88-.87,2.53,2.53,0,0,1,1.26-.35c.91,0,2.37.56,2.37,2.9v4h-1.24v-3.89c0-1.09-.4-2-1.57-2a1.78,1.78,0,0,0-1.65,1.23,1.53,1.53,0,0,0-.08.59v4.09h-1.24Z" transform="translate(-100.66 -111.45)"/><path class="cls-5" d="M161.21,185.47a2.17,2.17,0,0,0,2.33,2.35,4.36,4.36,0,0,0,1.87-.35l.21.88a5.38,5.38,0,0,1-2.25.42,3.15,3.15,0,0,1-3.34-3.41c0-2.05,1.21-3.66,3.18-3.66,2.22,0,2.81,2,2.81,3.19a3.54,3.54,0,0,1-.05.58Zm3.61-.89a1.75,1.75,0,0,0-1.7-2,2.05,2.05,0,0,0-1.9,2Z" transform="translate(-100.66 -111.45)"/><path class="cls-5" d="M171,181.85l1.33,3.81a16.38,16.38,0,0,1,.55,1.74h0c.16-.56.35-1.12.58-1.74l1.31-3.81h1.29l-2.66,6.78h-1.18l-2.57-6.78Z" transform="translate(-100.66 -111.45)"/><path class="cls-5" d="M178.61,180a.76.76,0,1,1-1.52,0,.75.75,0,0,1,.77-.77A.72.72,0,0,1,178.61,180Zm-1.37,8.68v-6.78h1.23v6.78Z" transform="translate(-100.66 -111.45)"/><path class="cls-5" d="M185.35,188.38a4.53,4.53,0,0,1-1.95.39,3.22,3.22,0,0,1-3.37-3.46,3.44,3.44,0,0,1,3.64-3.6,4.27,4.27,0,0,1,1.71.35l-.28,1a2.86,2.86,0,0,0-1.43-.33,2.35,2.35,0,0,0-2.4,2.57,2.32,2.32,0,0,0,2.36,2.53,3.56,3.56,0,0,0,1.51-.33Z" transform="translate(-100.66 -111.45)"/><path class="cls-5" d="M188.45,179.91v1.94h1.77v.94h-1.77v3.66c0,.84.24,1.31.93,1.31a2.82,2.82,0,0,0,.71-.08l.06.93a3.26,3.26,0,0,1-1.09.16,1.68,1.68,0,0,1-1.33-.52,2.49,2.49,0,0,1-.48-1.76v-3.7H186.2v-.94h1.05v-1.62Z" transform="translate(-100.66 -111.45)"/><path class="cls-5" d="M193,180a.77.77,0,0,1-1.53,0,.75.75,0,0,1,.77-.77A.73.73,0,0,1,193,180Zm-1.38,8.68v-6.78h1.24v6.78Z" transform="translate(-100.66 -111.45)"/><path class="cls-5" d="M194.88,183.69c0-.7,0-1.28-.06-1.84h1.08L196,183h0a2.33,2.33,0,0,1,2.13-1.25,2,2,0,0,1,1.92,1.36h0a2.75,2.75,0,0,1,.75-.88,2.32,2.32,0,0,1,1.5-.48c.9,0,2.23.59,2.23,2.94v4h-1.21V184.8c0-1.31-.47-2.09-1.47-2.09a1.59,1.59,0,0,0-1.45,1.12,1.9,1.9,0,0,0-.1.61v4.19h-1.21v-4.06c0-1.08-.47-1.86-1.41-1.86a1.84,1.84,0,0,0-1.63,1.83v4.09h-1.2Z" transform="translate(-100.66 -111.45)"/><path class="cls-5" d="M206.39,187.37a3.2,3.2,0,0,0,1.62.49c.9,0,1.32-.45,1.32-1s-.35-.91-1.26-1.24c-1.22-.44-1.8-1.11-1.8-1.92a2.1,2.1,0,0,1,2.34-2,3.44,3.44,0,0,1,1.67.42l-.31.9a2.57,2.57,0,0,0-1.38-.4c-.73,0-1.14.42-1.14.93s.41.81,1.29,1.15c1.18.45,1.78,1,1.78,2,0,1.19-.93,2-2.54,2a3.87,3.87,0,0,1-1.9-.46Z" transform="translate(-100.66 -111.45)"/><path class="cls-5" d="M220.91,181.85c0,.49-.06,1-.06,1.87v3.93a3.94,3.94,0,0,1-1,3.1,3.65,3.65,0,0,1-2.47.81,4.39,4.39,0,0,1-2.25-.56l.3-.94a3.84,3.84,0,0,0,2,.53c1.26,0,2.19-.65,2.19-2.36v-.76h0a2.43,2.43,0,0,1-2.16,1.14,3,3,0,0,1-2.88-3.31c0-2.3,1.5-3.6,3-3.6a2.27,2.27,0,0,1,2.12,1.18h0l.06-1Zm-1.28,2.68a1.66,1.66,0,0,0-.07-.56,1.76,1.76,0,0,0-1.72-1.3c-1.18,0-2,1-2,2.56,0,1.33.68,2.44,2,2.44a1.82,1.82,0,0,0,1.71-1.26,2.15,2.15,0,0,0,.09-.66Z" transform="translate(-100.66 -111.45)"/><path class="cls-5" d="M229,185.19a3.32,3.32,0,0,1-3.38,3.6,3.23,3.23,0,0,1-3.25-3.49,3.31,3.31,0,0,1,3.36-3.6A3.21,3.21,0,0,1,229,185.19Zm-5.38.07c0,1.48.85,2.6,2.06,2.6s2.06-1.1,2.06-2.63c0-1.15-.58-2.61-2-2.61S223.65,184,223.65,185.26Z" transform="translate(-100.66 -111.45)"/><path class="cls-5" d="M232.06,179.91v1.94h1.77v.94h-1.77v3.66c0,.84.24,1.31.93,1.31a2.82,2.82,0,0,0,.71-.08l.06.93a3.26,3.26,0,0,1-1.09.16,1.72,1.72,0,0,1-1.34-.52,2.49,2.49,0,0,1-.47-1.76v-3.7h-1.05v-.94h1.05v-1.62Z" transform="translate(-100.66 -111.45)"/><path class="cls-5" d="M241.93,188.63l-.09-.85h-.05a2.51,2.51,0,0,1-2.07,1,1.93,1.93,0,0,1-2.07-1.95c0-1.64,1.46-2.53,4.07-2.52v-.14a1.4,1.4,0,0,0-1.54-1.57,3.45,3.45,0,0,0-1.76.5l-.28-.81a4.24,4.24,0,0,1,2.23-.6c2.07,0,2.57,1.41,2.57,2.77V187a8.84,8.84,0,0,0,.12,1.62Zm-.18-3.46c-1.34,0-2.87.21-2.87,1.53a1.09,1.09,0,0,0,1.16,1.18,1.67,1.67,0,0,0,1.64-1.14,1.28,1.28,0,0,0,.07-.39Z" transform="translate(-100.66 -111.45)"/><path class="cls-5" d="M247.9,184c0-.8,0-1.49-.06-2.12h1.08l0,1.33H249a2,2,0,0,1,1.87-1.48,1.25,1.25,0,0,1,.35,0v1.16a2.39,2.39,0,0,0-.42,0,1.74,1.74,0,0,0-1.65,1.58,3.39,3.39,0,0,0,0,.58v3.61H247.9Z" transform="translate(-100.66 -111.45)"/><path class="cls-5" d="M253,185.47a2.17,2.17,0,0,0,2.33,2.35,4.36,4.36,0,0,0,1.87-.35l.21.88a5.38,5.38,0,0,1-2.25.42,3.15,3.15,0,0,1-3.34-3.41c0-2.05,1.21-3.66,3.18-3.66,2.22,0,2.81,2,2.81,3.19a3.54,3.54,0,0,1-.05.58Zm3.61-.89a1.75,1.75,0,0,0-1.7-2,2,2,0,0,0-1.89,2Z" transform="translate(-100.66 -111.45)"/><path class="cls-5" d="M264.18,188.38a4.53,4.53,0,0,1-1.95.39,3.22,3.22,0,0,1-3.37-3.46,3.45,3.45,0,0,1,3.64-3.6,4.27,4.27,0,0,1,1.71.35l-.28,1a2.86,2.86,0,0,0-1.43-.33,2.35,2.35,0,0,0-2.4,2.57,2.32,2.32,0,0,0,2.36,2.53,3.56,3.56,0,0,0,1.51-.33Z" transform="translate(-100.66 -111.45)"/><path class="cls-5" d="M266.22,185.47a2.18,2.18,0,0,0,2.33,2.35,4.36,4.36,0,0,0,1.87-.35l.21.88a5.38,5.38,0,0,1-2.25.42,3.14,3.14,0,0,1-3.33-3.41c0-2.05,1.2-3.66,3.18-3.66,2.21,0,2.8,2,2.8,3.19a5.79,5.79,0,0,1,0,.58Zm3.62-.89a1.76,1.76,0,0,0-1.71-2,2,2,0,0,0-1.89,2Z" transform="translate(-100.66 -111.45)"/><path class="cls-5" d="M273.92,180a.76.76,0,1,1-1.52,0,.75.75,0,0,1,.77-.77A.72.72,0,0,1,273.92,180Zm-1.37,8.68v-6.78h1.23v6.78Z" transform="translate(-100.66 -111.45)"/><path class="cls-5" d="M275.83,184.07c0-.87,0-1.57-.06-2.22h1.11l.05,1.17h0a2.65,2.65,0,0,1,2.41-1.32c1.64,0,2.87,1.39,2.87,3.45,0,2.43-1.48,3.64-3.08,3.64a2.37,2.37,0,0,1-2.09-1.07h0v3.69h-1.21Zm1.21,1.8a2.64,2.64,0,0,0,.06.51,1.91,1.91,0,0,0,1.85,1.44c1.3,0,2.06-1.06,2.06-2.62,0-1.36-.72-2.52-2-2.52a2,2,0,0,0-1.86,1.53,2,2,0,0,0-.09.5Z" transform="translate(-100.66 -111.45)"/><path class="cls-5" d="M285.28,179.91v1.94H287v.94h-1.76v3.66c0,.84.23,1.31.92,1.31a3,3,0,0,0,.72-.08l.05.93a3.21,3.21,0,0,1-1.09.16,1.68,1.68,0,0,1-1.33-.52,2.49,2.49,0,0,1-.48-1.76v-3.7H283v-.94h1.05v-1.62Z" transform="translate(-100.66 -111.45)"/><path class="cls-5" d="M101.29,253.16v-.76l1-.94c2.32-2.21,3.37-3.39,3.39-4.76a1.63,1.63,0,0,0-1.81-1.78,3.08,3.08,0,0,0-1.93.77l-.39-.87a4,4,0,0,1,2.57-.92,2.57,2.57,0,0,1,2.79,2.65c0,1.68-1.22,3-3.14,4.89l-.73.67v0h4.09v1Z" transform="translate(-100.66 -111.45)"/><path class="cls-5" d="M108.47,253.16v-.76l1-.94c2.32-2.21,3.38-3.39,3.39-4.76a1.63,1.63,0,0,0-1.81-1.78,3.11,3.11,0,0,0-1.93.77l-.39-.87a4,4,0,0,1,2.57-.92,2.56,2.56,0,0,1,2.79,2.65c0,1.68-1.22,3-3.14,4.89l-.72.67v0h4.09v1Z" transform="translate(-100.66 -111.45)"/><path class="cls-5" d="M116.37,252.29a5.07,5.07,0,0,0,1,0,3.45,3.45,0,0,0,1.91-.88,4,4,0,0,0,1.2-2.43h0a2.73,2.73,0,0,1-4.83-1.8,3.12,3.12,0,0,1,3.11-3.24c1.86,0,3,1.51,3,3.84a5.74,5.74,0,0,1-1.57,4.27,4.53,4.53,0,0,1-2.65,1.22,6,6,0,0,1-1.13.07Zm.45-5.24a1.74,1.74,0,0,0,1.75,1.93,2,2,0,0,0,1.79-.95.81.81,0,0,0,.11-.45c0-1.55-.57-2.74-1.86-2.74C117.56,244.84,116.82,245.76,116.82,247.05Z" transform="translate(-100.66 -111.45)"/><path class="cls-5" d="M128.89,248.51c0,3.09-1.15,4.8-3.17,4.8-1.78,0-3-1.66-3-4.68s1.32-4.73,3.17-4.73S128.89,245.61,128.89,248.51Zm-4.95.14c0,2.37.73,3.71,1.85,3.71s1.87-1.47,1.87-3.8-.58-3.71-1.85-3.71C124.73,244.85,123.94,246.17,123.94,248.65Z" transform="translate(-100.66 -111.45)"/><path class="cls-5" d="M133.87,246.38l.9,3.45c.19.75.37,1.45.5,2.15h0c.16-.68.38-1.41.6-2.14l1.11-3.46h1l1.05,3.39c.25.81.45,1.53.6,2.21h0a21.41,21.41,0,0,1,.52-2.2l1-3.4h1.22l-2.19,6.78h-1.12l-1-3.24c-.23-.75-.43-1.43-.6-2.22h0a22.77,22.77,0,0,1-.61,2.24l-1.1,3.22h-1.12l-2-6.78Z" transform="translate(-100.66 -111.45)"/><path class="cls-5" d="M144.23,250a2.17,2.17,0,0,0,2.32,2.36,4.54,4.54,0,0,0,1.88-.35l.21.88a5.41,5.41,0,0,1-2.25.42,3.15,3.15,0,0,1-3.34-3.42c0-2,1.21-3.65,3.18-3.65,2.22,0,2.8,1.94,2.8,3.19a3.65,3.65,0,0,1,0,.57Zm3.61-.88a1.75,1.75,0,0,0-1.71-2,2,2,0,0,0-1.89,2Z" transform="translate(-100.66 -111.45)"/><path class="cls-5" d="M150.56,248.49c0-.79,0-1.48-.06-2.11h1.08l0,1.33h.06a2,2,0,0,1,1.87-1.48,1.25,1.25,0,0,1,.35,0v1.16a1.71,1.71,0,0,0-.42,0,1.74,1.74,0,0,0-1.65,1.58,3.3,3.3,0,0,0-.05.58v3.61h-1.22Z" transform="translate(-100.66 -111.45)"/><path class="cls-5" d="M155.68,250a2.18,2.18,0,0,0,2.33,2.36,4.52,4.52,0,0,0,1.87-.35l.21.88a5.38,5.38,0,0,1-2.25.42,3.15,3.15,0,0,1-3.34-3.42c0-2,1.21-3.65,3.18-3.65,2.22,0,2.81,1.94,2.81,3.19a3.4,3.4,0,0,1-.05.57Zm3.61-.88a1.75,1.75,0,0,0-1.7-2,2,2,0,0,0-1.89,2Z" transform="translate(-100.66 -111.45)"/><path class="cls-5" d="M166.35,244.47a.77.77,0,0,1-1.53,0,.75.75,0,0,1,.77-.77A.74.74,0,0,1,166.35,244.47ZM165,253.16v-6.78h1.23v6.78Z" transform="translate(-100.66 -111.45)"/><path class="cls-5" d="M168.25,248.21c0-.7,0-1.27-.05-1.83h1.09l.07,1.12h0a2.49,2.49,0,0,1,2.24-1.27c.94,0,2.39.56,2.39,2.88v4h-1.23v-3.91c0-1.09-.41-2-1.57-2a1.74,1.74,0,0,0-1.65,1.26,1.62,1.62,0,0,0-.09.57v4.08h-1.23Z" transform="translate(-100.66 -111.45)"/><path class="cls-5" d="M177.45,244.43v1.95h1.77v.94h-1.77V251c0,.84.24,1.32.93,1.32a2.82,2.82,0,0,0,.71-.08l.06.92a3,3,0,0,1-1.1.17,1.71,1.71,0,0,1-1.33-.52,2.51,2.51,0,0,1-.47-1.76v-3.7H175.2v-.94h1.05v-1.63Z" transform="translate(-100.66 -111.45)"/><path class="cls-5" d="M181.2,250a2.18,2.18,0,0,0,2.33,2.36,4.52,4.52,0,0,0,1.87-.35l.21.88a5.38,5.38,0,0,1-2.25.42,3.14,3.14,0,0,1-3.33-3.42c0-2,1.2-3.65,3.18-3.65,2.21,0,2.8,1.94,2.8,3.19a5.55,5.55,0,0,1,0,.57Zm3.62-.88a1.76,1.76,0,0,0-1.71-2,2,2,0,0,0-1.89,2Z" transform="translate(-100.66 -111.45)"/><path class="cls-5" d="M187.53,248.49c0-.79,0-1.48-.06-2.11h1.08l0,1.33h.06a2,2,0,0,1,1.88-1.48,1.25,1.25,0,0,1,.35,0v1.16a1.76,1.76,0,0,0-.42,0A1.74,1.74,0,0,0,188.8,249a4.65,4.65,0,0,0-.05.58v3.61h-1.22Z" transform="translate(-100.66 -111.45)"/><path class="cls-5" d="M192.93,246.38l1.34,3.81c.22.62.4,1.18.54,1.74h0c.16-.56.35-1.12.58-1.74l1.31-3.81H198l-2.66,6.78h-1.18l-2.57-6.78Z" transform="translate(-100.66 -111.45)"/><path class="cls-5" d="M200.56,244.47a.72.72,0,0,1-.78.76.74.74,0,0,1-.74-.76.75.75,0,0,1,.77-.77A.73.73,0,0,1,200.56,244.47Zm-1.37,8.69v-6.78h1.23v6.78Z" transform="translate(-100.66 -111.45)"/><path class="cls-5" d="M203.15,250a2.18,2.18,0,0,0,2.33,2.36,4.61,4.61,0,0,0,1.88-.35l.21.88a5.47,5.47,0,0,1-2.26.42,3.14,3.14,0,0,1-3.33-3.42c0-2,1.2-3.65,3.18-3.65,2.21,0,2.8,1.94,2.8,3.19a5.55,5.55,0,0,1,0,.57Zm3.62-.88a1.76,1.76,0,0,0-1.71-2,2,2,0,0,0-1.89,2Z" transform="translate(-100.66 -111.45)"/><path class="cls-5" d="M210,246.38l.9,3.45c.19.75.38,1.45.5,2.15h0c.16-.68.38-1.41.61-2.14l1.1-3.46h1l1.05,3.39c.25.81.45,1.53.6,2.21h0c.12-.68.3-1.4.52-2.2l1-3.4h1.22l-2.19,6.78h-1.12l-1-3.24a22.64,22.64,0,0,1-.61-2.22h0a20.29,20.29,0,0,1-.62,2.24l-1.09,3.22h-1.12l-2-6.78Z" transform="translate(-100.66 -111.45)"/><path class="cls-5" d="M220.33,250a2.18,2.18,0,0,0,2.33,2.36,4.52,4.52,0,0,0,1.87-.35l.21.88a5.38,5.38,0,0,1-2.25.42,3.14,3.14,0,0,1-3.33-3.42c0-2,1.2-3.65,3.17-3.65,2.22,0,2.81,1.94,2.81,3.19a3.4,3.4,0,0,1,0,.57Zm3.62-.88a1.76,1.76,0,0,0-1.71-2,2,2,0,0,0-1.89,2Z" transform="translate(-100.66 -111.45)"/><path class="cls-5" d="M232.51,243.21v8.2c0,.6,0,1.29.06,1.75h-1.11l-.05-1.18h0a2.5,2.5,0,0,1-2.31,1.33c-1.64,0-2.9-1.38-2.9-3.44,0-2.26,1.39-3.64,3-3.64a2.25,2.25,0,0,1,2,1h0v-4Zm-1.23,5.93a2.24,2.24,0,0,0-.05-.52,1.83,1.83,0,0,0-1.78-1.43c-1.28,0-2,1.12-2,2.62s.67,2.51,2,2.51a1.86,1.86,0,0,0,1.81-1.47,2.27,2.27,0,0,0,.05-.53Z" transform="translate(-100.66 -111.45)"/><path class="cls-5" d="M107.82,313.24a3.31,3.31,0,0,1-3.38,3.6,3.22,3.22,0,0,1-3.25-3.49,3.31,3.31,0,0,1,3.37-3.59A3.21,3.21,0,0,1,107.82,313.24Zm-5.38.07c0,1.49.85,2.61,2.06,2.61s2.06-1.11,2.06-2.63c0-1.15-.58-2.61-2-2.61S102.44,312,102.44,313.31Z" transform="translate(-100.66 -111.45)"/><path class="cls-5" d="M109.37,311.74c0-.7,0-1.27-.06-1.83h1.1l.07,1.12h0a2.51,2.51,0,0,1,2.25-1.27c.93,0,2.39.56,2.39,2.88v4.05h-1.23v-3.91c0-1.09-.41-2-1.57-2a1.74,1.74,0,0,0-1.65,1.26,1.62,1.62,0,0,0-.09.57v4.08h-1.23Z" transform="translate(-100.66 -111.45)"/><path class="cls-5" d="M117.14,306.74h1.23v9.95h-1.23Z" transform="translate(-100.66 -111.45)"/><path class="cls-5" d="M120.89,309.91l1.49,4c.15.44.32,1,.43,1.38h0c.12-.4.26-.92.43-1.41l1.35-4h1.3l-1.85,4.83c-.88,2.33-1.48,3.52-2.32,4.25a3.31,3.31,0,0,1-1.52.79l-.3-1a3.46,3.46,0,0,0,1.07-.6,3.77,3.77,0,0,0,1-1.38.76.76,0,0,0,.1-.29,1,1,0,0,0-.09-.32l-2.5-6.25Z" transform="translate(-100.66 -111.45)"/><path class="cls-5" d="M135.52,307.58v.82l-4,8.29h-1.27l4-8.06v0h-4.46v-1Z" transform="translate(-100.66 -111.45)"/><path class="cls-5" d="M142.71,307.58v.82l-4,8.29h-1.27l3.95-8.06v0H137v-1Z" transform="translate(-100.66 -111.45)"/><path class="cls-5" d="M147.34,312c0-.79,0-1.48-.06-2.11h1.08l0,1.33h.06a2,2,0,0,1,1.87-1.48,1.25,1.25,0,0,1,.35,0V311a1.71,1.71,0,0,0-.42,0,1.74,1.74,0,0,0-1.65,1.58,3.3,3.3,0,0,0-.05.58v3.61h-1.22Z" transform="translate(-100.66 -111.45)"/><path class="cls-5" d="M152.46,313.52a2.18,2.18,0,0,0,2.33,2.36,4.52,4.52,0,0,0,1.87-.35l.21.88a5.54,5.54,0,0,1-2.25.42,3.15,3.15,0,0,1-3.34-3.42c0-2,1.21-3.65,3.18-3.65,2.22,0,2.81,1.94,2.81,3.19a3.4,3.4,0,0,1-.05.57Zm3.61-.88a1.75,1.75,0,0,0-1.7-2,2,2,0,0,0-1.89,2Z" transform="translate(-100.66 -111.45)"/><path class="cls-5" d="M158.62,315.43a3.21,3.21,0,0,0,1.63.49c.89,0,1.31-.45,1.31-1s-.35-.91-1.26-1.25c-1.22-.43-1.79-1.1-1.79-1.92a2.09,2.09,0,0,1,2.34-2,3.29,3.29,0,0,1,1.66.42l-.3.89a2.65,2.65,0,0,0-1.39-.39c-.73,0-1.13.42-1.13.92s.4.82,1.28,1.15c1.18.45,1.78,1,1.78,2.05,0,1.19-.92,2-2.53,2a3.91,3.91,0,0,1-1.91-.46Z" transform="translate(-100.66 -111.45)"/><path class="cls-5" d="M170,314.84c0,.7,0,1.32.05,1.85H169l-.07-1.11h0a2.54,2.54,0,0,1-2.24,1.26c-1.06,0-2.34-.59-2.34-3v-4h1.23v3.75c0,1.29.4,2.16,1.52,2.16a1.77,1.77,0,0,0,1.62-1.12,1.81,1.81,0,0,0,.11-.63v-4.16H170Z" transform="translate(-100.66 -111.45)"/><path class="cls-5" d="M172.05,306.74h1.23v9.95h-1.23Z" transform="translate(-100.66 -111.45)"/><path class="cls-5" d="M176.83,308v2h1.77v.94h-1.77v3.65c0,.84.24,1.32.93,1.32a2.82,2.82,0,0,0,.71-.08l.06.92a3,3,0,0,1-1.09.17,1.68,1.68,0,0,1-1.33-.52,2.5,2.5,0,0,1-.48-1.76v-3.7h-1v-.94h1v-1.63Z" transform="translate(-100.66 -111.45)"/><path class="cls-5" d="M180.59,313.52a2.17,2.17,0,0,0,2.32,2.36,4.57,4.57,0,0,0,1.88-.35l.21.88a5.64,5.64,0,0,1-2.26.42,3.15,3.15,0,0,1-3.33-3.42c0-2,1.2-3.65,3.18-3.65,2.21,0,2.8,1.94,2.8,3.19a5.55,5.55,0,0,1,0,.57Zm3.61-.88a1.76,1.76,0,0,0-1.71-2,2,2,0,0,0-1.89,2Z" transform="translate(-100.66 -111.45)"/><path class="cls-5" d="M192.77,306.74v8.2c0,.6,0,1.29.06,1.75h-1.11l-.06-1.18h0a2.49,2.49,0,0,1-2.31,1.33c-1.64,0-2.9-1.38-2.9-3.44,0-2.26,1.39-3.64,3-3.64a2.28,2.28,0,0,1,2,1h0v-4.05Zm-1.23,5.93a2.24,2.24,0,0,0-.06-.52,1.81,1.81,0,0,0-1.78-1.43c-1.27,0-2,1.12-2,2.62s.67,2.51,2,2.51a1.85,1.85,0,0,0,1.81-1.47,2.26,2.26,0,0,0,.06-.53Z" transform="translate(-100.66 -111.45)"/><path class="cls-5" d="M199.15,308a.73.73,0,0,1-.78.76.74.74,0,0,1-.75-.76.76.76,0,0,1,.77-.77A.73.73,0,0,1,199.15,308Zm-1.37,8.69v-6.78H199v6.78Z" transform="translate(-100.66 -111.45)"/><path class="cls-5" d="M201.05,311.74c0-.7,0-1.27-.05-1.83h1.09l.07,1.12h0a2.49,2.49,0,0,1,2.24-1.27c.94,0,2.39.56,2.39,2.88v4.05h-1.23v-3.91c0-1.09-.4-2-1.57-2a1.74,1.74,0,0,0-1.65,1.26,1.64,1.64,0,0,0-.08.57v4.08h-1.24Z" transform="translate(-100.66 -111.45)"/><path class="cls-5" d="M215.55,316.69l-.1-.86h0a2.52,2.52,0,0,1-2.08,1,1.93,1.93,0,0,1-2.07-1.94c0-1.64,1.46-2.54,4.08-2.53v-.14a1.4,1.4,0,0,0-1.55-1.56,3.35,3.35,0,0,0-1.76.5l-.28-.81a4.15,4.15,0,0,1,2.23-.6c2.07,0,2.57,1.41,2.57,2.77v2.53a9,9,0,0,0,.12,1.63Zm-.19-3.46c-1.34,0-2.87.21-2.87,1.53a1.09,1.09,0,0,0,1.16,1.17,1.68,1.68,0,0,0,1.64-1.13,1.11,1.11,0,0,0,.07-.39Z" transform="translate(-100.66 -111.45)"/><path class="cls-5" d="M222,309.91l.89,3.44c.2.76.38,1.46.51,2.16h0c.15-.68.38-1.41.6-2.14l1.11-3.46h1l1.05,3.39c.25.81.44,1.53.6,2.21h0a19.07,19.07,0,0,1,.52-2.2l1-3.4h1.21l-2.18,6.78h-1.12l-1-3.24a22.61,22.61,0,0,1-.6-2.22h0a22.77,22.77,0,0,1-.61,2.24l-1.1,3.22h-1.12l-2-6.78Z" transform="translate(-100.66 -111.45)"/><path class="cls-5" d="M235.51,316.69l-.1-.86h0a2.51,2.51,0,0,1-2.07,1,1.93,1.93,0,0,1-2.08-1.94c0-1.64,1.46-2.54,4.08-2.53v-.14a1.39,1.39,0,0,0-1.54-1.56,3.39,3.39,0,0,0-1.77.5l-.28-.81a4.18,4.18,0,0,1,2.23-.6c2.07,0,2.58,1.41,2.58,2.77v2.53a10,10,0,0,0,.11,1.63Zm-.18-3.46c-1.35,0-2.87.21-2.87,1.53a1.09,1.09,0,0,0,1.16,1.17,1.7,1.7,0,0,0,1.64-1.13,1.4,1.4,0,0,0,.07-.39Z" transform="translate(-100.66 -111.45)"/><path class="cls-5" d="M238.5,312c0-.79,0-1.48-.05-2.11h1.08l0,1.33h.05a2,2,0,0,1,1.88-1.48,1.25,1.25,0,0,1,.35,0V311a1.76,1.76,0,0,0-.42,0,1.73,1.73,0,0,0-1.65,1.58,3.23,3.23,0,0,0-.06.58v3.61H238.5Z" transform="translate(-100.66 -111.45)"/><path class="cls-5" d="M243.14,311.74c0-.7,0-1.27-.06-1.83h1.09l.07,1.12h0a2.5,2.5,0,0,1,2.24-1.27c.94,0,2.4.56,2.4,2.88v4.05h-1.23v-3.91c0-1.09-.41-2-1.57-2a1.75,1.75,0,0,0-1.66,1.26,1.91,1.91,0,0,0-.08.57v4.08h-1.23Z" transform="translate(-100.66 -111.45)"/><path class="cls-5" d="M252.28,308a.73.73,0,0,1-.78.76.74.74,0,0,1-.75-.76.76.76,0,0,1,.77-.77A.73.73,0,0,1,252.28,308Zm-1.37,8.69v-6.78h1.23v6.78Z" transform="translate(-100.66 -111.45)"/><path class="cls-5" d="M254.18,311.74c0-.7,0-1.27-.05-1.83h1.09l.07,1.12h0a2.49,2.49,0,0,1,2.24-1.27c.94,0,2.39.56,2.39,2.88v4.05h-1.23v-3.91c0-1.09-.4-2-1.57-2A1.74,1.74,0,0,0,255.5,312a1.64,1.64,0,0,0-.08.57v4.08h-1.24Z" transform="translate(-100.66 -111.45)"/><path class="cls-5" d="M267.79,309.91c0,.49-.05,1-.05,1.86v3.94c0,1.55-.31,2.51-1,3.09a3.58,3.58,0,0,1-2.46.82,4.43,4.43,0,0,1-2.26-.56l.31-.94a3.84,3.84,0,0,0,2,.53c1.26,0,2.18-.66,2.18-2.37v-.75h0a2.4,2.4,0,0,1-2.15,1.13,3,3,0,0,1-2.89-3.31c0-2.29,1.5-3.59,3.06-3.59a2.25,2.25,0,0,1,2.11,1.17h0l0-1Zm-1.27,2.67a2,2,0,0,0-.07-.56,1.79,1.79,0,0,0-1.72-1.3c-1.18,0-2,1-2,2.57,0,1.33.67,2.43,2,2.43a1.79,1.79,0,0,0,1.71-1.26,2.16,2.16,0,0,0,.1-.66Z" transform="translate(-100.66 -111.45)"/><path class="cls-5" d="M413.81,139.22h0l-2.26,1.22-.34-1.34,2.84-1.52h1.5v13h-1.7Z" transform="translate(-100.66 -111.45)"/><path class="cls-5" d="M428.89,143.94c0,4.42-1.64,6.86-4.52,6.86-2.54,0-4.26-2.38-4.3-6.68s1.88-6.76,4.52-6.76S428.89,139.8,428.89,143.94Zm-7.06.2c0,3.38,1,5.3,2.64,5.3,1.8,0,2.66-2.1,2.66-5.42s-.82-5.3-2.64-5.3C423,138.72,421.83,140.6,421.83,144.14Z" transform="translate(-100.66 -111.45)"/><path class="cls-5" d="M439.15,143.94c0,4.42-1.64,6.86-4.52,6.86-2.54,0-4.26-2.38-4.3-6.68s1.88-6.76,4.52-6.76S439.15,139.8,439.15,143.94Zm-7.06.2c0,3.38,1,5.3,2.64,5.3,1.8,0,2.66-2.1,2.66-5.42s-.82-5.3-2.64-5.3C433.21,138.72,432.09,140.6,432.09,144.14Z" transform="translate(-100.66 -111.45)"/><path class="cls-5" d="M446.63,141.24c0,2.74-1.44,4.1-3.12,4.1s-3-1.3-3-3.92,1.42-4.06,3.14-4.06S446.63,138.76,446.63,141.24Zm-4.76.12c0,1.66.58,2.92,1.68,2.92s1.68-1.24,1.68-3-.46-2.9-1.68-2.9S441.87,139.72,441.87,141.36Zm1.52,9.44L451,137.36h1.12l-7.64,13.44Zm11.7-4.18c0,2.74-1.44,4.1-3.1,4.1s-3-1.3-3-3.9,1.42-4.08,3.14-4.08S455.09,144.14,455.09,146.62Zm-4.76.12c0,1.66.62,2.92,1.7,2.92s1.68-1.24,1.68-3-.46-2.9-1.68-2.9S450.33,145.1,450.33,146.74Z" transform="translate(-100.66 -111.45)"/><path class="cls-5" d="M221.93,213a5.88,5.88,0,0,0,2.88.82c2.26,0,3-1.44,2.94-2.52,0-1.82-1.66-2.6-3.36-2.6h-1v-1.32h1c1.28,0,2.9-.66,2.9-2.21,0-1-.66-2-2.28-2a4.77,4.77,0,0,0-2.6.86l-.46-1.28a6.18,6.18,0,0,1,3.4-1c2.56,0,3.72,1.52,3.72,3.1a3.23,3.23,0,0,1-2.4,3.07v0a3.39,3.39,0,0,1,2.9,3.34c0,2.08-1.62,3.9-4.74,3.9a6.61,6.61,0,0,1-3.38-.88Z" transform="translate(-100.66 -111.45)"/><path class="cls-5" d="M240.21,202v1.16l-5.66,11.85h-1.82l5.64-11.51v0H232V202Z" transform="translate(-100.66 -111.45)"/><path class="cls-5" d="M247.89,205.71c0,2.74-1.44,4.1-3.12,4.1s-3-1.3-3-3.93,1.42-4.06,3.14-4.06S247.89,203.22,247.89,205.71Zm-4.76.11c0,1.67.58,2.93,1.68,2.93s1.68-1.24,1.68-3-.46-2.9-1.68-2.9S243.13,204.18,243.13,205.82Zm1.52,9.45,7.64-13.45h1.12l-7.64,13.45Zm11.71-4.18c0,2.74-1.44,4.1-3.1,4.1s-3-1.3-3-3.9,1.42-4.08,3.14-4.08S256.36,208.61,256.36,211.09Zm-4.77.12c0,1.66.62,2.92,1.7,2.92s1.69-1.24,1.69-3-.46-2.9-1.69-2.9S251.59,209.57,251.59,211.21Z" transform="translate(-100.66 -111.45)"/><path class="cls-5" d="M186.69,279.67v-1.08l1.38-1.34c3.32-3.16,4.82-4.84,4.84-6.8a2.32,2.32,0,0,0-2.58-2.54,4.43,4.43,0,0,0-2.76,1.1l-.56-1.24a5.7,5.7,0,0,1,3.68-1.32,3.66,3.66,0,0,1,4,3.78c0,2.4-1.74,4.34-4.48,7l-1,1v0H195v1.46Z" transform="translate(-100.66 -111.45)"/><path class="cls-5" d="M204.71,268.15h-5l-.5,3.34a7,7,0,0,1,1.06-.08,5.49,5.49,0,0,1,2.8.7,3.71,3.71,0,0,1,1.86,3.34,4.51,4.51,0,0,1-4.84,4.44,6.36,6.36,0,0,1-3.24-.8l.44-1.34a5.82,5.82,0,0,0,2.78.72,2.87,2.87,0,0,0,3.08-2.82c0-1.68-1.14-2.88-3.74-2.88a13.45,13.45,0,0,0-1.8.14l.84-6.24h6.22Z" transform="translate(-100.66 -111.45)"/><path class="cls-5" d="M213.07,270.33c0,2.74-1.44,4.1-3.12,4.1s-3-1.3-3-3.92,1.42-4.06,3.14-4.06S213.07,267.85,213.07,270.33Zm-4.76.12c0,1.66.58,2.92,1.68,2.92s1.68-1.24,1.68-3-.46-2.9-1.68-2.9S208.31,268.81,208.31,270.45Zm1.52,9.44,7.64-13.44h1.12L211,279.89Zm11.71-4.18c0,2.74-1.45,4.1-3.11,4.1s-3-1.3-3-3.9,1.42-4.08,3.14-4.08S221.54,273.23,221.54,275.71Zm-4.77.12c0,1.66.62,2.92,1.7,2.92s1.68-1.24,1.68-3-.46-2.9-1.68-2.9S216.77,274.19,216.77,275.83Z" transform="translate(-100.66 -111.45)"/><path class="cls-5" d="M127,339c0,4.42-1.64,6.86-4.52,6.86-2.54,0-4.26-2.38-4.3-6.68s1.88-6.76,4.52-6.76S127,334.9,127,339Zm-7.06.2c0,3.38,1,5.3,2.64,5.3,1.8,0,2.66-2.1,2.66-5.42s-.82-5.3-2.64-5.3C121,333.82,119.91,335.7,119.91,339.24Z" transform="translate(-100.66 -111.45)"/><path class="cls-5" d="M128.73,344.64a1.18,1.18,0,0,1,1.2-1.26,1.26,1.26,0,1,1-1.2,1.26Z" transform="translate(-100.66 -111.45)"/><path class="cls-5" d="M132.57,342.38a3.71,3.71,0,0,1,2.58-3.48l0-.06a3.22,3.22,0,0,1-2.06-2.92c0-2.06,1.74-3.46,4-3.46,2.52,0,3.78,1.58,3.78,3.2a3.3,3.3,0,0,1-2.14,3v.06a3.6,3.6,0,0,1,2.62,3.36c0,2.26-1.94,3.78-4.42,3.78C134.21,345.9,132.57,344.28,132.57,342.38Zm7-.08c0-1.58-1.1-2.34-2.86-2.84a2.82,2.82,0,0,0-2.34,2.68,2.4,2.4,0,0,0,2.6,2.48A2.35,2.35,0,0,0,139.57,342.3Zm-4.84-6.5c0,1.3,1,2,2.48,2.4a2.56,2.56,0,0,0,2-2.36,2,2,0,0,0-2.2-2.12A2.07,2.07,0,0,0,134.73,335.8Z" transform="translate(-100.66 -111.45)"/><path class="cls-5" d="M148.85,336.34c0,2.74-1.44,4.1-3.12,4.1s-3-1.3-3-3.92,1.42-4.06,3.14-4.06S148.85,333.86,148.85,336.34Zm-4.76.12c0,1.66.58,2.92,1.68,2.92s1.68-1.24,1.68-3-.46-2.9-1.68-2.9S144.09,334.82,144.09,336.46Zm1.52,9.44,7.64-13.44h1.12l-7.64,13.44Zm11.7-4.18c0,2.74-1.44,4.1-3.1,4.1s-3-1.3-3-3.9,1.42-4.08,3.14-4.08S157.31,339.24,157.31,341.72Zm-4.76.12c0,1.66.62,2.92,1.7,2.92s1.68-1.24,1.68-3-.46-2.9-1.68-2.9S152.55,340.2,152.55,341.84Z" transform="translate(-100.66 -111.45)"/></svg>